<svg xmlns="http://www.w3.org/2000/svg" width="2400" height="1350" viewBox="0 0 2400 1350" role="img" aria-label="Stylized African map with tech-node overlays">
  <defs>
    <linearGradient id="g0" x1="0" y1="0" x2="1" y2="1">
      <stop offset="0" stop-color="#05070c"/>
      <stop offset="1" stop-color="#0b1020"/>
    </linearGradient>
    <radialGradient id="goldGlow" cx="30%" cy="24%" r="70%">
      <stop offset="0" stop-color="rgba(212,175,55,.26)"/>
      <stop offset="0.55" stop-color="rgba(212,175,55,.08)"/>
      <stop offset="1" stop-color="rgba(212,175,55,0)"/>
    </radialGradient>
    <radialGradient id="blueGlow" cx="80%" cy="18%" r="70%">
      <stop offset="0" stop-color="rgba(160,220,255,.10)"/>
      <stop offset="1" stop-color="rgba(120,180,255,0)"/>
    </radialGradient>
    <filter id="blur" x="-20%" y="-20%" width="140%" height="140%">
      <feGaussianBlur stdDeviation="8"/>
    </filter>
  </defs>

  <rect width="2400" height="1350" fill="url(#g0)"/>
  <rect width="2400" height="1350" fill="url(#goldGlow)"/>
  <rect width="2400" height="1350" fill="url(#blueGlow)"/>

  <g opacity="0.8"><path d="M 466.2 1291.9 Q 653.3 1146.7 1008.5 645.5" stroke="rgba(243,210,122,0.088)" stroke-width="1.27" fill="none"/><path d="M 1111.9 1305.2 Q 1514.6 1222.4 1608.9 880.8" stroke="rgba(243,210,122,0.096)" stroke-width="1.34" fill="none"/><path d="M 1960.4 691.2 Q 1539.3 977.3 1756.2 1174.2" stroke="rgba(243,210,122,0.136)" stroke-width="1.93" fill="none"/><path d="M 1713.2 1011.9 Q 1919.7 563.1 2322.2 49.7" stroke="rgba(243,210,122,0.126)" stroke-width="1.79" fill="none"/><path d="M 1489.1 585.8 Q 1635.5 735.2 1558.1 976.9" stroke="rgba(243,210,122,0.093)" stroke-width="1.89" fill="none"/><path d="M 716.0 755.1 Q 1028.1 426.3 1713.2 223.8" stroke="rgba(243,210,122,0.068)" stroke-width="1.86" fill="none"/><path d="M 1609.5 702.0 Q 1870.8 577.7 1394.1 172.4" stroke="rgba(243,210,122,0.068)" stroke-width="1.78" fill="none"/><path d="M 923.0 -56.7 Q 755.9 375.7 696.7 841.9" stroke="rgba(243,210,122,0.088)" stroke-width="1.31" fill="none"/><path d="M 295.1 425.8 Q 1123.8 394.7 1772.1 696.9" stroke="rgba(243,210,122,0.100)" stroke-width="1.36" fill="none"/><path d="M 2308.7 861.8 Q 1249.7 863.7 604.2 908.8" stroke="rgba(243,210,122,0.116)" stroke-width="1.22" fill="none"/><path d="M 1213.4 1134.2 Q 815.1 617.9 825.8 354.5" stroke="rgba(243,210,122,0.119)" stroke-width="1.38" fill="none"/><path d="M 1324.1 1221.1 Q 1145.9 993.0 1450.1 1169.7" stroke="rgba(243,210,122,0.137)" stroke-width="2.17" fill="none"/><path d="M 2580.0 837.8 Q 2393.9 400.1 2136.4 232.9" stroke="rgba(243,210,122,0.108)" stroke-width="2.14" fill="none"/><path d="M 2112.8 625.0 Q 1397.1 803.4 510.2 1258.2" stroke="rgba(243,210,122,0.117)" stroke-width="1.40" fill="none"/></g>
  <g><circle cx="247.8" cy="5.7" r="5.1" fill="rgba(212,175,55,0.077)"/><circle cx="1560.3" cy="350.1" r="5.9" fill="rgba(212,175,55,0.078)"/><circle cx="365.2" cy="365.8" r="2.6" fill="rgba(212,175,55,0.117)"/><circle cx="1994.6" cy="1207.9" r="5.8" fill="rgba(212,175,55,0.061)"/><circle cx="1162.3" cy="344.6" r="2.9" fill="rgba(212,175,55,0.111)"/><circle cx="994.7" cy="686.1" r="4.6" fill="rgba(212,175,55,0.136)"/><circle cx="49.2" cy="242.4" r="2.7" fill="rgba(212,175,55,0.134)"/><circle cx="1689.4" cy="1271.7" r="5.5" fill="rgba(212,175,55,0.065)"/><circle cx="1778.3" cy="71.2" r="4.3" fill="rgba(212,175,55,0.101)"/><circle cx="2227.6" cy="351.0" r="5.8" fill="rgba(212,175,55,0.066)"/><circle cx="2312.9" cy="1043.0" r="3.3" fill="rgba(212,175,55,0.119)"/><circle cx="802.9" cy="471.0" r="3.1" fill="rgba(212,175,55,0.128)"/><circle cx="179.0" cy="77.0" r="5.7" fill="rgba(212,175,55,0.081)"/><circle cx="722.7" cy="1304.3" r="2.4" fill="rgba(212,175,55,0.088)"/><circle cx="39.0" cy="1348.0" r="3.3" fill="rgba(212,175,55,0.071)"/><circle cx="2356.6" cy="1050.7" r="4.8" fill="rgba(212,175,55,0.104)"/><circle cx="1445.0" cy="1189.1" r="3.0" fill="rgba(212,175,55,0.098)"/><circle cx="1139.2" cy="1181.9" r="3.4" fill="rgba(212,175,55,0.063)"/><circle cx="1684.7" cy="1118.4" r="5.2" fill="rgba(212,175,55,0.124)"/><circle cx="509.4" cy="1296.1" r="6.0" fill="rgba(212,175,55,0.071)"/><circle cx="187.8" cy="193.9" r="3.5" fill="rgba(212,175,55,0.107)"/><circle cx="1844.2" cy="137.6" r="2.4" fill="rgba(212,175,55,0.118)"/><circle cx="563.1" cy="943.8" r="5.6" fill="rgba(212,175,55,0.092)"/><circle cx="1517.1" cy="1170.3" r="2.5" fill="rgba(212,175,55,0.064)"/><circle cx="1186.0" cy="1309.0" r="3.5" fill="rgba(212,175,55,0.110)"/><circle cx="545.9" cy="755.5" r="5.2" fill="rgba(212,175,55,0.096)"/><circle cx="464.5" cy="636.8" r="2.5" fill="rgba(212,175,55,0.064)"/><circle cx="825.7" cy="583.6" r="3.4" fill="rgba(212,175,55,0.135)"/><circle cx="1570.4" cy="343.1" r="2.9" fill="rgba(212,175,55,0.121)"/><circle cx="998.8" cy="625.5" r="3.4" fill="rgba(212,175,55,0.106)"/><circle cx="2250.4" cy="936.4" r="5.8" fill="rgba(212,175,55,0.063)"/><circle cx="2341.5" cy="76.8" r="5.3" fill="rgba(212,175,55,0.095)"/><circle cx="1582.9" cy="794.3" r="5.5" fill="rgba(212,175,55,0.070)"/><circle cx="1622.8" cy="156.3" r="5.9" fill="rgba(212,175,55,0.103)"/><circle cx="1795.9" cy="944.9" r="3.4" fill="rgba(212,175,55,0.106)"/><circle cx="851.6" cy="725.9" r="5.9" fill="rgba(212,175,55,0.078)"/><circle cx="1477.0" cy="351.5" r="2.3" fill="rgba(212,175,55,0.103)"/><circle cx="42.1" cy="488.2" r="6.0" fill="rgba(212,175,55,0.087)"/></g>

  <g filter="url(#blur)" opacity="0.9">
    <circle cx="1752.0" cy="621.0" r="210" fill="rgba(255,255,255,.04)"/>
  </g>

  <g><circle cx="1752.0" cy="621.0" r="160" fill="none" stroke="rgba(212,175,55,0.180)" stroke-width="1.2"/><circle cx="1752.0" cy="621.0" r="215" fill="none" stroke="rgba(212,175,55,0.150)" stroke-width="1.2"/><circle cx="1752.0" cy="621.0" r="270" fill="none" stroke="rgba(212,175,55,0.120)" stroke-width="1.2"/><circle cx="1752.0" cy="621.0" r="325" fill="none" stroke="rgba(212,175,55,0.090)" stroke-width="1.2"/></g>

  <g>
    <rect x="1562.0" y="555.0" width="380" height="132" rx="26" fill="rgba(255,255,255,.05)" stroke="rgba(255,255,255,.10)"/>
    <text x="1752.0" y="613.0" text-anchor="middle" font-family="ui-sans-serif,system-ui" font-size="50" fill="rgba(245,247,255,.92)" letter-spacing="2">W3</text>
    <text x="1752.0" y="655.0" text-anchor="middle" font-family="ui-sans-serif,system-ui" font-size="22" fill="rgba(245,247,255,.60)" letter-spacing="1">w3.mw</text>
  </g>

  <g opacity="0.9">
    <circle cx="432.0" cy="1053.0" r="280" fill="rgba(212,175,55,.06)"/>
    <circle cx="432.0" cy="1053.0" r="279" fill="none" stroke="rgba(255,255,255,.06)"/>
  </g>
</svg>